<?xml version="1.0" encoding="UTF-8"?>
<svg xmlns="http://www.w3.org/2000/svg" viewBox="0 0 512 512" width="100%" height="100%">
  <rect width="512" height="512" fill="#FAF7F2"/>
  
    <g transform="translate(256, 256) scale(1.9)">
      <g stroke="#0B0B0E" stroke-width="1.6" fill="none">
        <polygon points="0,-82 58,-58 82,0 58,58 0,82 -58,58 -82,0 -58,-58" stroke-width="2.2"/>
        <polygon points="0,-68 48,-48 68,0 48,48 0,68 -48,48 -68,0 -48,-48" stroke-width="1.2"/>
      </g>
      <g fill="#0B0B0E">
        <path d="M 0,-94 L 7,-78 L 0,-82 L -7,-78 Z"/><path d="M 0,94 L 7,78 L 0,82 L -7,-78 Z"/>
        <path d="M -94,0 L -78,7 L -82,0 L -78,-7 Z"/><path d="M 94,0 L 78,7 L 82,0 L 78,-7 Z"/>
        <path d="M 66,-66 L 50,-55 L 58,-58 L 55,-50 Z"/><path d="M -66,-66 L -50,-55 L -58,-58 L -55,-50 Z"/>
        <path d="M 66,66 L 50,55 L 58,58 L 55,50 Z"/><path d="M -66,66 L -50,-55 L -58,-58 L -55,-50 Z"/>
      </g>
      <circle cx="0" cy="0" r="54" fill="none" stroke="#0B0B0E" stroke-width="1.2" stroke-dasharray="4 4"/>
      <circle cx="0" cy="0" r="48" fill="none" stroke="#0B0B0E" stroke-width="1.8"/>
      <g fill="#0B0B0E">
        <path d="M -22,-32 L -14,-32 L -14,28 L -22,28 L -22,32 L -4,32 L -4,28 L -10,28 L -10,-28 L -4,-28 L -4,-32 L -22,-32 Z"/>
        <path d="M -10,-32 C 5,-32 24,-33 24,-14 C 24,1 12,6 -4,7 L -10,7 L -10,-32 Z M -6,-28 L -6,3 C 7,3 18,1 18,-13 C 18,-27 7,-28 -6,-28 Z"/>
        <path d="M -1,4 C 6,4 12,14 19,25 C 23,31 27,33 34,32 L 34,28 C 29,29 25,26 21,20 C 14,10 9,1 2,1 L -10,1 L -10,5 L -1,4 Z"/>
        <polygon points="4,-15 6,-13 4,-11 2,-13"/>
      </g>
    </g>
    
</svg>